2.8Hzlow3min_grf.mot
version=1
nRows=12
nColumns 19
inDegrees=yes
endheader
time	1_ground_force_vx	1_ground_force_vy	1_ground_force_vz	1_ground_force_px	1_ground_force_py	1_ground_force_pz	1_ground_torque_x	1_ground_torque_y	1_ground_torque_z	2_ground_force_vx	2_ground_force_vy	2_ground_force_vz	2_ground_force_px	2_ground_force_py	2_ground_force_pz	2_ground_torque_x	2_ground_torque_y	2_ground_torque_z
            1.253500	            0.578984	           67.427538	           -1.592484	           -0.190257	            0.006462	           -0.459332	           -0.000369	           -0.042920	            0.001014	            4.347838	          120.240510	            7.607027	           -0.206327	            0.005694	           -0.685149	           -0.003896	           -0.107749	           -0.006817
            1.254000	            0.166888	           65.984940	           -1.505931	           -0.189619	            0.006466	           -0.460038	           -0.000361	           -0.142700	            0.003257	            4.270693	          115.636958	            7.449856	           -0.205767	            0.005685	           -0.682009	           -0.005045	           -0.136615	           -0.008801
            1.254500	            0.030078	           64.542001	           -1.328350	           -0.191637	            0.006462	           -0.459250	           -0.000070	           -0.150368	            0.003095	            4.182207	          114.164270	            7.209999	           -0.206595	            0.005691	           -0.684485	           -0.004155	           -0.113426	           -0.007163
            1.255000	            0.351179	           62.199003	           -1.430907	           -0.189531	            0.006475	           -0.462188	           -0.000619	           -0.109713	            0.002524	            4.332726	          111.402560	            7.200083	           -0.205922	            0.005691	           -0.684018	           -0.006973	           -0.179285	           -0.011587
            1.255500	            0.167938	           61.477905	           -1.433544	           -0.190342	            0.006463	           -0.459416	           -0.000199	           -0.072844	            0.001699	            4.011484	          109.559391	            7.334436	           -0.206703	            0.005691	           -0.684570	           -0.005087	           -0.138946	           -0.009302
            1.256000	            0.122946	           59.313921	           -1.259282	           -0.190405	            0.006476	           -0.462620	           -0.000230	           -0.110735	            0.002351	            4.018651	          107.534923	            6.998712	           -0.207074	            0.005690	           -0.684924	           -0.006952	           -0.186037	           -0.012108
            1.256500	           -0.060699	           57.692478	           -1.495063	           -0.188673	            0.006479	           -0.463091	            0.000092	           -0.087765	            0.002274	            3.749618	          104.218402	            7.221645	           -0.206130	            0.005692	           -0.684310	           -0.004155	           -0.115478	           -0.008002
            1.257000	           -0.243434	           56.069461	           -1.363997	           -0.189539	            0.006472	           -0.461627	            0.000552	           -0.127235	            0.003095	            3.754956	          102.745048	            7.263317	           -0.207746	            0.005692	           -0.686023	           -0.005706	           -0.156135	           -0.011038
            1.257500	           -0.151110	           54.446498	           -1.233613	           -0.188492	            0.006467	           -0.460437	            0.000339	           -0.122103	            0.002767	            3.300975	           98.692930	            7.014420	           -0.208094	            0.005685	           -0.684325	           -0.004335	           -0.129596	           -0.009211
            1.258000	           -0.472041	           53.365235	           -1.329166	           -0.191381	            0.006464	           -0.459719	            0.001411	           -0.159550	            0.003974	            3.685723	           95.932233	            6.957477	           -0.207891	            0.005685	           -0.684202	           -0.010046	           -0.261475	           -0.018963
            1.258500	           -0.333437	           52.462361	           -0.966525	           -0.189778	            0.006450	           -0.456512	            0.000684	           -0.107565	            0.001982	            3.411270	           94.089735	            6.951026	           -0.207021	            0.005693	           -0.685457	           -0.008948	           -0.246806	           -0.018233
            1.259000	           -0.472167	           51.563365	           -1.520320	           -0.190602	            0.006455	           -0.457569	            0.000858	           -0.093695	            0.002763	            3.466740	           91.696136	            6.895536	           -0.208848	            0.005687	           -0.685675	           -0.008274	           -0.218841	           -0.016457
